M48
; DRILL file {KiCad 9.0.5} date 2025-11-24T22:36:19-0500
; FORMAT={-:-/ absolute / inch / decimal}
; #@! TF.CreationDate,2025-11-24T22:36:19-05:00
; #@! TF.GenerationSoftware,Kicad,Pcbnew,9.0.5
; #@! TF.FileFunction,Plated,1,2,PTH
FMAT,2
INCH
; #@! TA.AperFunction,Plated,PTH,ViaDrill
T1C0.0118
; #@! TA.AperFunction,Plated,PTH,ViaDrill
T2C0.1969
%
G90
G05
T1
X1.1417Y3.4646
X1.3681Y2.7657
X1.3878Y1.5453
X1.5354Y2.9232
X1.6929Y2.4016
X1.7323Y1.9783
X1.7421Y2.1949
X1.8898Y1.4567
X1.939Y2.0571
X2.0669Y3.002
X2.185Y2.8248
X2.2244Y1.9783
X2.2736Y1.4862
X2.313Y1.0433
X2.372Y0.2559
X2.7854Y3.4843
X3.2776Y3.2579
X3.4154Y2.6378
T2
X0.6299Y3.8091
X3.0315Y3.8091
M30
