%TF.GenerationSoftware,KiCad,Pcbnew,9.0.5*%
%TF.CreationDate,2025-11-24T22:36:19-05:00*%
%TF.ProjectId,ornament2025,6f726e61-6d65-46e7-9432-3032352e6b69,rev?*%
%TF.SameCoordinates,Original*%
%TF.FileFunction,Copper,L1,Top*%
%TF.FilePolarity,Positive*%
%FSLAX46Y46*%
G04 Gerber Fmt 4.6, Leading zero omitted, Abs format (unit mm)*
G04 Created by KiCad (PCBNEW 9.0.5) date 2025-11-24 22:36:19*
%MOMM*%
%LPD*%
G01*
G04 APERTURE LIST*
G04 Aperture macros list*
%AMRoundRect*
0 Rectangle with rounded corners*
0 $1 Rounding radius*
0 $2 $3 $4 $5 $6 $7 $8 $9 X,Y pos of 4 corners*
0 Add a 4 corners polygon primitive as box body*
4,1,4,$2,$3,$4,$5,$6,$7,$8,$9,$2,$3,0*
0 Add four circle primitives for the rounded corners*
1,1,$1+$1,$2,$3*
1,1,$1+$1,$4,$5*
1,1,$1+$1,$6,$7*
1,1,$1+$1,$8,$9*
0 Add four rect primitives between the rounded corners*
20,1,$1+$1,$2,$3,$4,$5,0*
20,1,$1+$1,$4,$5,$6,$7,0*
20,1,$1+$1,$6,$7,$8,$9,0*
20,1,$1+$1,$8,$9,$2,$3,0*%
G04 Aperture macros list end*
%TA.AperFunction,SMDPad,CuDef*%
%ADD10RoundRect,0.140000X-0.140000X-0.170000X0.140000X-0.170000X0.140000X0.170000X-0.140000X0.170000X0*%
%TD*%
%TA.AperFunction,SMDPad,CuDef*%
%ADD11O,0.590000X2.050000*%
%TD*%
%TA.AperFunction,SMDPad,CuDef*%
%ADD12RoundRect,0.140000X0.170000X-0.140000X0.170000X0.140000X-0.170000X0.140000X-0.170000X-0.140000X0*%
%TD*%
%TA.AperFunction,SMDPad,CuDef*%
%ADD13RoundRect,0.150000X-0.590000X-0.150000X0.590000X-0.150000X0.590000X0.150000X-0.590000X0.150000X0*%
%TD*%
%TA.AperFunction,SMDPad,CuDef*%
%ADD14RoundRect,0.140000X0.140000X0.170000X-0.140000X0.170000X-0.140000X-0.170000X0.140000X-0.170000X0*%
%TD*%
%TA.AperFunction,SMDPad,CuDef*%
%ADD15RoundRect,0.242500X0.242500X0.457500X-0.242500X0.457500X-0.242500X-0.457500X0.242500X-0.457500X0*%
%TD*%
%TA.AperFunction,SMDPad,CuDef*%
%ADD16RoundRect,0.140000X-0.170000X0.140000X-0.170000X-0.140000X0.170000X-0.140000X0.170000X0.140000X0*%
%TD*%
%TA.AperFunction,SMDPad,CuDef*%
%ADD17RoundRect,0.242500X-0.457500X0.242500X-0.457500X-0.242500X0.457500X-0.242500X0.457500X0.242500X0*%
%TD*%
%TA.AperFunction,SMDPad,CuDef*%
%ADD18RoundRect,0.242500X-0.242500X-0.457500X0.242500X-0.457500X0.242500X0.457500X-0.242500X0.457500X0*%
%TD*%
%TA.AperFunction,SMDPad,CuDef*%
%ADD19RoundRect,0.242500X0.457500X-0.242500X0.457500X0.242500X-0.457500X0.242500X-0.457500X-0.242500X0*%
%TD*%
%TA.AperFunction,SMDPad,CuDef*%
%ADD20RoundRect,0.225000X0.225000X0.250000X-0.225000X0.250000X-0.225000X-0.250000X0.225000X-0.250000X0*%
%TD*%
%TA.AperFunction,SMDPad,CuDef*%
%ADD21RoundRect,0.250000X-0.250000X-0.475000X0.250000X-0.475000X0.250000X0.475000X-0.250000X0.475000X0*%
%TD*%
%TA.AperFunction,ViaPad*%
%ADD22C,6.000000*%
%TD*%
%TA.AperFunction,ViaPad*%
%ADD23C,0.600000*%
%TD*%
%TA.AperFunction,Conductor*%
%ADD24C,0.200000*%
%TD*%
G04 APERTURE END LIST*
D10*
%TO.P,R2,1*%
%TO.N,Net-(U1-DISCH)*%
X47000000Y60250000D03*
%TO.P,R2,2*%
%TO.N,Net-(U1-THRES)*%
X48000000Y60250000D03*
%TD*%
D11*
%TO.P,U1,1,GND*%
%TO.N,GND*%
X45590000Y50230000D03*
%TO.P,U1,2,TRIG*%
%TO.N,Net-(U1-THRES)*%
X46860000Y50230000D03*
%TO.P,U1,3,OUT*%
%TO.N,/OUT*%
X48140000Y50230000D03*
%TO.P,U1,4,RST*%
%TO.N,+5V*%
X49410000Y50230000D03*
%TO.P,U1,5,CONT*%
%TO.N,unconnected-(U1-CONT-Pad5)*%
X49410000Y55770000D03*
%TO.P,U1,6,THRES*%
%TO.N,Net-(U1-THRES)*%
X48140000Y55770000D03*
%TO.P,U1,7,DISCH*%
%TO.N,Net-(U1-DISCH)*%
X46860000Y55770000D03*
%TO.P,U1,8,VCC*%
%TO.N,+5V*%
X45590000Y55770000D03*
%TD*%
D12*
%TO.P,R15,1*%
%TO.N,Net-(D13-Pad1)*%
X85250000Y68500000D03*
%TO.P,R15,2*%
%TO.N,Net-(Q13-D)*%
X85250000Y69500000D03*
%TD*%
D13*
%TO.P,Q5,1,G*%
%TO.N,/OUT*%
X64250000Y94400000D03*
%TO.P,Q5,2,S*%
%TO.N,GND*%
X64250000Y92500000D03*
%TO.P,Q5,3,D*%
%TO.N,Net-(Q5-D)*%
X66130000Y93450000D03*
%TD*%
D10*
%TO.P,R11,1*%
%TO.N,Net-(D9-Pad1)*%
X63500000Y5250000D03*
%TO.P,R11,2*%
%TO.N,Net-(Q9-D)*%
X64500000Y5250000D03*
%TD*%
D14*
%TO.P,R1,1*%
%TO.N,+5V*%
X48000000Y61750000D03*
%TO.P,R1,2*%
%TO.N,Net-(U1-DISCH)*%
X47000000Y61750000D03*
%TD*%
D15*
%TO.P,D9,1*%
%TO.N,Net-(D9-Pad1)*%
X61380000Y4500000D03*
%TO.P,D9,2*%
%TO.N,+5V*%
X59500000Y4500000D03*
%TD*%
D13*
%TO.P,Q2,1,G*%
%TO.N,/OUT*%
X84750000Y92150000D03*
%TO.P,Q2,2,S*%
%TO.N,GND*%
X84750000Y90250000D03*
%TO.P,Q2,3,D*%
%TO.N,Net-(Q2-D)*%
X86630000Y91200000D03*
%TD*%
%TO.P,Q11,1,G*%
%TO.N,/OUT*%
X7870000Y69700000D03*
%TO.P,Q11,2,S*%
%TO.N,GND*%
X7870000Y67800000D03*
%TO.P,Q11,3,D*%
%TO.N,Net-(Q11-D)*%
X9750000Y68750000D03*
%TD*%
D12*
%TO.P,R3,1*%
%TO.N,Net-(D1-Pad1)*%
X58500000Y75073000D03*
%TO.P,R3,2*%
%TO.N,Net-(Q1-D)*%
X58500000Y76073000D03*
%TD*%
D16*
%TO.P,R17,1*%
%TO.N,Net-(D15-Pad1)*%
X36500000Y78500000D03*
%TO.P,R17,2*%
%TO.N,Net-(Q15-D)*%
X36500000Y77500000D03*
%TD*%
D10*
%TO.P,R6,1*%
%TO.N,Net-(D4-Pad1)*%
X45000000Y37250000D03*
%TO.P,R6,2*%
%TO.N,Net-(Q4-D)*%
X46000000Y37250000D03*
%TD*%
D13*
%TO.P,Q10,1,G*%
%TO.N,/OUT*%
X24870000Y39812000D03*
%TO.P,Q10,2,S*%
%TO.N,GND*%
X24870000Y37912000D03*
%TO.P,Q10,3,D*%
%TO.N,Net-(Q10-D)*%
X26750000Y38862000D03*
%TD*%
D17*
%TO.P,D7,1*%
%TO.N,Net-(D7-Pad1)*%
X60250000Y39880000D03*
%TO.P,D7,2*%
%TO.N,+5V*%
X60250000Y38000000D03*
%TD*%
D13*
%TO.P,Q3,1,G*%
%TO.N,/OUT*%
X24120000Y96950000D03*
%TO.P,Q3,2,S*%
%TO.N,GND*%
X24120000Y95050000D03*
%TO.P,Q3,3,D*%
%TO.N,Net-(Q3-D)*%
X26000000Y96000000D03*
%TD*%
D12*
%TO.P,R8,1*%
%TO.N,Net-(D6-Pad1)*%
X33750000Y5250000D03*
%TO.P,R8,2*%
%TO.N,Net-(Q6-D)*%
X33750000Y6250000D03*
%TD*%
D14*
%TO.P,R13,1*%
%TO.N,Net-(D11-Pad1)*%
X11500000Y65500000D03*
%TO.P,R13,2*%
%TO.N,Net-(Q11-D)*%
X10500000Y65500000D03*
%TD*%
D13*
%TO.P,Q8,1,G*%
%TO.N,/OUT*%
X4870000Y87700000D03*
%TO.P,Q8,2,S*%
%TO.N,GND*%
X4870000Y85800000D03*
%TO.P,Q8,3,D*%
%TO.N,Net-(Q8-D)*%
X6750000Y86750000D03*
%TD*%
D12*
%TO.P,R7,1*%
%TO.N,Net-(D5-Pad1)*%
X69000000Y92500000D03*
%TO.P,R7,2*%
%TO.N,Net-(Q5-D)*%
X69000000Y93500000D03*
%TD*%
D18*
%TO.P,D13,1*%
%TO.N,Net-(D13-Pad1)*%
X82120000Y66500000D03*
%TO.P,D13,2*%
%TO.N,+5V*%
X84000000Y66500000D03*
%TD*%
D13*
%TO.P,Q15,1,G*%
%TO.N,/OUT*%
X33870000Y75450000D03*
%TO.P,Q15,2,S*%
%TO.N,GND*%
X33870000Y73550000D03*
%TO.P,Q15,3,D*%
%TO.N,Net-(Q15-D)*%
X35750000Y74500000D03*
%TD*%
D12*
%TO.P,R16,1*%
%TO.N,Net-(D14-Pad1)*%
X39000000Y23000000D03*
%TO.P,R16,2*%
%TO.N,Net-(Q14-D)*%
X39000000Y24000000D03*
%TD*%
D13*
%TO.P,Q9,1,G*%
%TO.N,/OUT*%
X62620000Y9200000D03*
%TO.P,Q9,2,S*%
%TO.N,GND*%
X62620000Y7300000D03*
%TO.P,Q9,3,D*%
%TO.N,Net-(Q9-D)*%
X64500000Y8250000D03*
%TD*%
D18*
%TO.P,D6,1*%
%TO.N,Net-(D6-Pad1)*%
X29870000Y4000000D03*
%TO.P,D6,2*%
%TO.N,+5V*%
X31750000Y4000000D03*
%TD*%
D13*
%TO.P,Q1,1,G*%
%TO.N,/OUT*%
X54120000Y77450000D03*
%TO.P,Q1,2,S*%
%TO.N,GND*%
X54120000Y75550000D03*
%TO.P,Q1,3,D*%
%TO.N,Net-(Q1-D)*%
X56000000Y76500000D03*
%TD*%
D12*
%TO.P,R12,1*%
%TO.N,Net-(D10-Pad1)*%
X29500000Y37750000D03*
%TO.P,R12,2*%
%TO.N,Net-(Q10-D)*%
X29500000Y38750000D03*
%TD*%
D19*
%TO.P,D10,1*%
%TO.N,Net-(D10-Pad1)*%
X32500000Y37870000D03*
%TO.P,D10,2*%
%TO.N,+5V*%
X32500000Y39750000D03*
%TD*%
D13*
%TO.P,Q12,1,G*%
%TO.N,/OUT*%
X53370000Y23200000D03*
%TO.P,Q12,2,S*%
%TO.N,GND*%
X53370000Y21300000D03*
%TO.P,Q12,3,D*%
%TO.N,Net-(Q12-D)*%
X55250000Y22250000D03*
%TD*%
D19*
%TO.P,D8,1*%
%TO.N,Net-(D8-Pad1)*%
X9500000Y89000000D03*
%TO.P,D8,2*%
%TO.N,+5V*%
X9500000Y90880000D03*
%TD*%
D16*
%TO.P,R10,1*%
%TO.N,Net-(D8-Pad1)*%
X9500000Y86500000D03*
%TO.P,R10,2*%
%TO.N,Net-(Q8-D)*%
X9500000Y85500000D03*
%TD*%
D10*
%TO.P,R9,1*%
%TO.N,Net-(D7-Pad1)*%
X64000000Y39250000D03*
%TO.P,R9,2*%
%TO.N,Net-(Q7-D)*%
X65000000Y39250000D03*
%TD*%
D13*
%TO.P,Q4,1,G*%
%TO.N,/OUT*%
X44500000Y41150000D03*
%TO.P,Q4,2,S*%
%TO.N,GND*%
X44500000Y39250000D03*
%TO.P,Q4,3,D*%
%TO.N,Net-(Q4-D)*%
X46380000Y40200000D03*
%TD*%
D16*
%TO.P,R14,1*%
%TO.N,Net-(D12-Pad1)*%
X57500000Y23000000D03*
%TO.P,R14,2*%
%TO.N,Net-(Q12-D)*%
X57500000Y22000000D03*
%TD*%
D17*
%TO.P,D15,1*%
%TO.N,Net-(D15-Pad1)*%
X39250000Y78130000D03*
%TO.P,D15,2*%
%TO.N,+5V*%
X39250000Y76250000D03*
%TD*%
D13*
%TO.P,Q13,1,G*%
%TO.N,/OUT*%
X80660000Y71130000D03*
%TO.P,Q13,2,S*%
%TO.N,GND*%
X80660000Y69230000D03*
%TO.P,Q13,3,D*%
%TO.N,Net-(Q13-D)*%
X82540000Y70180000D03*
%TD*%
D10*
%TO.P,R5,1*%
%TO.N,Net-(D3-Pad1)*%
X24500000Y92000000D03*
%TO.P,R5,2*%
%TO.N,Net-(Q3-D)*%
X25500000Y92000000D03*
%TD*%
D18*
%TO.P,D3,1*%
%TO.N,Net-(D3-Pad1)*%
X24870000Y89500000D03*
%TO.P,D3,2*%
%TO.N,+5V*%
X26750000Y89500000D03*
%TD*%
D13*
%TO.P,Q14,1,G*%
%TO.N,/OUT*%
X35060000Y25700000D03*
%TO.P,Q14,2,S*%
%TO.N,GND*%
X35060000Y23800000D03*
%TO.P,Q14,3,D*%
%TO.N,Net-(Q14-D)*%
X36940000Y24750000D03*
%TD*%
D19*
%TO.P,D12,1*%
%TO.N,Net-(D12-Pad1)*%
X57250000Y25500000D03*
%TO.P,D12,2*%
%TO.N,+5V*%
X57250000Y27380000D03*
%TD*%
D15*
%TO.P,D2,1*%
%TO.N,Net-(D2-Pad1)*%
X84880000Y84750000D03*
%TO.P,D2,2*%
%TO.N,+5V*%
X83000000Y84750000D03*
%TD*%
D13*
%TO.P,Q7,1,G*%
%TO.N,/OUT*%
X63370000Y36700000D03*
%TO.P,Q7,2,S*%
%TO.N,GND*%
X63370000Y34800000D03*
%TO.P,Q7,3,D*%
%TO.N,Net-(Q7-D)*%
X65250000Y35750000D03*
%TD*%
D20*
%TO.P,C2,1*%
%TO.N,GND*%
X57060000Y51750000D03*
%TO.P,C2,2*%
%TO.N,+5V*%
X55500000Y51750000D03*
%TD*%
D18*
%TO.P,D4,1*%
%TO.N,Net-(D4-Pad1)*%
X45000000Y35250000D03*
%TO.P,D4,2*%
%TO.N,+5V*%
X46880000Y35250000D03*
%TD*%
%TO.P,D14,1*%
%TO.N,Net-(D14-Pad1)*%
X37620000Y20500000D03*
%TO.P,D14,2*%
%TO.N,+5V*%
X39500000Y20500000D03*
%TD*%
D10*
%TO.P,R4,1*%
%TO.N,Net-(D2-Pad1)*%
X85250000Y88000000D03*
%TO.P,R4,2*%
%TO.N,Net-(Q2-D)*%
X86250000Y88000000D03*
%TD*%
D19*
%TO.P,D11,1*%
%TO.N,Net-(D11-Pad1)*%
X12500000Y68500000D03*
%TO.P,D11,2*%
%TO.N,+5V*%
X12500000Y70380000D03*
%TD*%
D13*
%TO.P,Q6,1,G*%
%TO.N,/OUT*%
X29120000Y8950000D03*
%TO.P,Q6,2,S*%
%TO.N,GND*%
X29120000Y7050000D03*
%TO.P,Q6,3,D*%
%TO.N,Net-(Q6-D)*%
X31000000Y8000000D03*
%TD*%
D21*
%TO.P,C1,1*%
%TO.N,Net-(U1-THRES)*%
X55100000Y56250000D03*
%TO.P,C1,2*%
%TO.N,GND*%
X57000000Y56250000D03*
%TD*%
D18*
%TO.P,D5,1*%
%TO.N,Net-(D5-Pad1)*%
X66870000Y88500000D03*
%TO.P,D5,2*%
%TO.N,+5V*%
X68750000Y88500000D03*
%TD*%
D15*
%TO.P,D1,1*%
%TO.N,Net-(D1-Pad1)*%
X58880000Y71750000D03*
%TO.P,D1,2*%
%TO.N,+5V*%
X57000000Y71750000D03*
%TD*%
D22*
%TO.N,*%
X16000000Y96750000D03*
X77000000Y96750000D03*
D23*
%TO.N,+5V*%
X60250000Y6500000D03*
X39000000Y74250000D03*
X86750000Y67000000D03*
X44250000Y55750000D03*
X70750000Y88500000D03*
X49250000Y52250000D03*
X58750000Y26500000D03*
X57750000Y37750000D03*
X48000000Y37000000D03*
X29000000Y88000000D03*
X35250000Y39250000D03*
X55500000Y71750000D03*
X83250000Y82750000D03*
%TO.N,/OUT*%
X52500000Y76250000D03*
X43000000Y61000000D03*
%TO.N,GND*%
X56500000Y50250000D03*
X34750000Y70250000D03*
X44000000Y50250000D03*
%TD*%
D24*
%TO.N,Net-(U1-THRES)*%
X46860000Y50230000D02*
X46860000Y50960000D01*
X51100000Y60250000D02*
X48000000Y60250000D01*
X48000000Y60250000D02*
X48000000Y55910000D01*
X48000000Y55910000D02*
X48140000Y55770000D01*
X55100000Y56250000D02*
X51100000Y60250000D01*
X46860000Y50960000D02*
X48140000Y52240000D01*
X48140000Y52240000D02*
X48140000Y55770000D01*
%TO.N,+5V*%
X59750000Y69500000D02*
X58250000Y69500000D01*
X39000000Y74750000D02*
X39250000Y75000000D01*
X57000000Y71750000D02*
X55500000Y71750000D01*
X59500000Y5750000D02*
X60250000Y6500000D01*
X62500000Y82250000D02*
X62500000Y72250000D01*
X43000000Y24000000D02*
X43000000Y27500000D01*
X55500000Y51750000D02*
X50930000Y51750000D01*
X46750000Y64750000D02*
X48000000Y63500000D01*
X48000000Y63500000D02*
X48000000Y61750000D01*
X39500000Y20500000D02*
X43000000Y24000000D01*
X39000000Y74250000D02*
X39000000Y74750000D01*
X58250000Y37750000D02*
X58500000Y38000000D01*
X33437550Y4000000D02*
X39292133Y9854583D01*
X25749000Y88499000D02*
X26750000Y89500000D01*
X45590000Y55770000D02*
X45590000Y63590000D01*
X21001000Y88499000D02*
X25749000Y88499000D01*
X57000000Y70750000D02*
X57000000Y71750000D01*
X62500000Y72250000D02*
X59750000Y69500000D01*
X59500000Y4500000D02*
X59500000Y5750000D01*
X43000000Y27500000D02*
X46880000Y31380000D01*
X34750000Y39750000D02*
X32500000Y39750000D01*
X58750000Y26500000D02*
X58130000Y26500000D01*
X39000000Y74250000D02*
X39000000Y72500000D01*
X58500000Y38000000D02*
X60250000Y38000000D01*
X70750000Y88500000D02*
X68750000Y88500000D01*
X44250000Y55750000D02*
X45570000Y55750000D01*
X83000000Y83000000D02*
X83000000Y84750000D01*
X84000000Y66500000D02*
X84500000Y67000000D01*
X46880000Y31380000D02*
X46880000Y35250000D01*
X58250000Y69500000D02*
X57000000Y70750000D01*
X35250000Y39250000D02*
X34750000Y39750000D01*
X12500000Y70380000D02*
X12500000Y87880000D01*
X84500000Y67000000D02*
X86750000Y67000000D01*
X39250000Y75000000D02*
X39250000Y76250000D01*
X9500000Y90880000D02*
X18620000Y90880000D01*
X45570000Y55750000D02*
X45590000Y55770000D01*
X50930000Y51750000D02*
X49410000Y50230000D01*
X31750000Y4000000D02*
X33437550Y4000000D01*
X18620000Y90880000D02*
X21001000Y88499000D01*
X39500000Y10388108D02*
X39500000Y20500000D01*
X45590000Y63590000D02*
X46750000Y64750000D01*
X68750000Y88500000D02*
X62500000Y82250000D01*
X47750000Y36750000D02*
X47750000Y36120000D01*
X28250000Y88000000D02*
X29000000Y88000000D01*
X49410000Y52090000D02*
X49250000Y52250000D01*
X83250000Y82750000D02*
X83000000Y83000000D01*
X49410000Y50230000D02*
X49410000Y52090000D01*
X39292133Y9854583D02*
X39500000Y10388108D01*
X48000000Y37000000D02*
X47750000Y36750000D01*
X12500000Y87880000D02*
X9500000Y90880000D01*
X47750000Y36120000D02*
X46880000Y35250000D01*
X58130000Y26500000D02*
X57250000Y27380000D01*
X26750000Y89500000D02*
X28250000Y88000000D01*
X39000000Y72500000D02*
X46750000Y64750000D01*
X57750000Y37750000D02*
X58250000Y37750000D01*
%TO.N,Net-(D1-Pad1)*%
X58500000Y72130000D02*
X58880000Y71750000D01*
X58500000Y75073000D02*
X58500000Y72130000D01*
%TO.N,Net-(D2-Pad1)*%
X85250000Y85120000D02*
X84880000Y84750000D01*
X85250000Y88000000D02*
X85250000Y85120000D01*
%TO.N,Net-(D3-Pad1)*%
X24870000Y89500000D02*
X24870000Y91630000D01*
X24870000Y91630000D02*
X24500000Y92000000D01*
%TO.N,Net-(D4-Pad1)*%
X45000000Y37250000D02*
X45000000Y35250000D01*
%TO.N,Net-(D5-Pad1)*%
X69000000Y92500000D02*
X69000000Y90630000D01*
X69000000Y90630000D02*
X66870000Y88500000D01*
%TO.N,Net-(D6-Pad1)*%
X33750000Y5250000D02*
X31120000Y5250000D01*
X31120000Y5250000D02*
X29870000Y4000000D01*
%TO.N,Net-(D7-Pad1)*%
X60250000Y39880000D02*
X63370000Y39880000D01*
X63370000Y39880000D02*
X64000000Y39250000D01*
%TO.N,Net-(D8-Pad1)*%
X9500000Y86500000D02*
X9500000Y89000000D01*
%TO.N,Net-(D9-Pad1)*%
X61380000Y4500000D02*
X62130000Y5250000D01*
X62130000Y5250000D02*
X63500000Y5250000D01*
%TO.N,Net-(D10-Pad1)*%
X32380000Y37750000D02*
X32500000Y37870000D01*
X29500000Y37750000D02*
X32380000Y37750000D01*
%TO.N,Net-(D11-Pad1)*%
X11500000Y65500000D02*
X11500000Y67500000D01*
X11500000Y67500000D02*
X12500000Y68500000D01*
%TO.N,Net-(D12-Pad1)*%
X57250000Y25500000D02*
X57250000Y23250000D01*
X57250000Y23250000D02*
X57500000Y23000000D01*
%TO.N,Net-(D13-Pad1)*%
X85250000Y68500000D02*
X84120000Y68500000D01*
X84120000Y68500000D02*
X82120000Y66500000D01*
%TO.N,Net-(D14-Pad1)*%
X37620000Y21620000D02*
X39000000Y23000000D01*
X37620000Y20500000D02*
X37620000Y21620000D01*
%TO.N,Net-(D15-Pad1)*%
X36870000Y78130000D02*
X36500000Y78500000D01*
X39250000Y78130000D02*
X36870000Y78130000D01*
%TO.N,/OUT*%
X40500000Y68301968D02*
X33870000Y74931968D01*
X28250000Y97750000D02*
X24920000Y97750000D01*
X33870000Y75450000D02*
X33870000Y92130000D01*
X2250000Y85080000D02*
X2250000Y75320000D01*
X52920000Y76250000D02*
X52500000Y76250000D01*
X8500000Y92750000D02*
X6750000Y91000000D01*
X48140000Y44790000D02*
X48140000Y50230000D01*
X87061968Y92150000D02*
X84750000Y92150000D01*
X19920000Y92750000D02*
X8500000Y92750000D01*
X33250000Y34750000D02*
X23500000Y34750000D01*
X61522717Y36700000D02*
X63370000Y36700000D01*
X51750000Y20070000D02*
X51750000Y21580000D01*
X22000000Y36250000D02*
X22000000Y39250000D01*
X44500000Y41150000D02*
X48140000Y44790000D01*
X54120000Y77450000D02*
X52920000Y76250000D01*
X53370000Y23200000D02*
X53370000Y28547283D01*
X53370000Y31370000D02*
X56500000Y34500000D01*
X53370000Y23200000D02*
X53370000Y31370000D01*
X43000000Y61000000D02*
X40500000Y61000000D01*
X89000000Y79470000D02*
X89000000Y90211968D01*
X89000000Y90211968D02*
X87061968Y92150000D01*
X64250000Y94400000D02*
X65100000Y95250000D01*
X54120000Y84270000D02*
X54120000Y77450000D01*
X62620000Y9200000D02*
X51750000Y20070000D01*
X24120000Y96950000D02*
X19920000Y92750000D01*
X22000000Y39250000D02*
X22562000Y39812000D01*
X40500000Y61000000D02*
X40500000Y68301968D01*
X80660000Y71130000D02*
X89000000Y79470000D01*
X44500000Y41150000D02*
X26208000Y41150000D01*
X65100000Y95250000D02*
X72750000Y95250000D01*
X33870000Y74931968D02*
X33870000Y75450000D01*
X4870000Y87700000D02*
X2250000Y85080000D01*
X64250000Y94400000D02*
X54120000Y84270000D01*
X6750000Y91000000D02*
X6750000Y89580000D01*
X56750000Y34750000D02*
X58700000Y36700000D01*
X50350000Y41150000D02*
X56750000Y34750000D01*
X31027324Y21667324D02*
X31027324Y10857324D01*
X2250000Y75320000D02*
X7870000Y69700000D01*
X56500000Y34500000D02*
X56750000Y34750000D01*
X35060000Y25700000D02*
X31027324Y21667324D01*
X35060000Y32940000D02*
X33250000Y34750000D01*
X35060000Y25700000D02*
X35060000Y32940000D01*
X6750000Y89580000D02*
X4870000Y87700000D01*
X40500000Y60250000D02*
X40500000Y61000000D01*
X24920000Y97750000D02*
X24120000Y96950000D01*
X44500000Y41150000D02*
X50350000Y41150000D01*
X40500000Y45150000D02*
X40500000Y60250000D01*
X33870000Y92130000D02*
X28250000Y97750000D01*
X51750000Y21580000D02*
X53370000Y23200000D01*
X44500000Y41150000D02*
X40500000Y45150000D01*
X72750000Y95250000D02*
X75850000Y92150000D01*
X26208000Y41150000D02*
X24870000Y39812000D01*
X31027324Y10857324D02*
X29120000Y8950000D01*
X75850000Y92150000D02*
X84750000Y92150000D01*
X58700000Y36700000D02*
X63370000Y36700000D01*
X23500000Y34750000D02*
X22000000Y36250000D01*
X22562000Y39812000D02*
X24870000Y39812000D01*
%TO.N,Net-(Q1-D)*%
X56000000Y76500000D02*
X58073000Y76500000D01*
X58073000Y76500000D02*
X58500000Y76073000D01*
%TO.N,Net-(Q2-D)*%
X86630000Y91200000D02*
X86630000Y88380000D01*
X86630000Y88380000D02*
X86250000Y88000000D01*
%TO.N,Net-(Q3-D)*%
X25500000Y95250000D02*
X25500000Y92000000D01*
X26000000Y95750000D02*
X25500000Y95250000D01*
X26000000Y96000000D02*
X26000000Y95750000D01*
%TO.N,Net-(Q4-D)*%
X46000000Y37250000D02*
X46000000Y39820000D01*
X46000000Y39820000D02*
X46380000Y40200000D01*
%TO.N,Net-(Q5-D)*%
X66130000Y93450000D02*
X68950000Y93450000D01*
X68950000Y93450000D02*
X69000000Y93500000D01*
%TO.N,Net-(Q6-D)*%
X31000000Y8000000D02*
X32000000Y8000000D01*
X32000000Y8000000D02*
X33750000Y6250000D01*
%TO.N,Net-(Q7-D)*%
X65000000Y36000000D02*
X65250000Y35750000D01*
X65000000Y39250000D02*
X65000000Y36000000D01*
%TO.N,Net-(Q8-D)*%
X6750000Y86750000D02*
X8250000Y86750000D01*
X8250000Y86750000D02*
X9500000Y85500000D01*
%TO.N,Net-(Q9-D)*%
X64500000Y5250000D02*
X64500000Y8250000D01*
%TO.N,Net-(Q10-D)*%
X26750000Y38862000D02*
X29388000Y38862000D01*
X29388000Y38862000D02*
X29500000Y38750000D01*
%TO.N,Net-(Q11-D)*%
X10500000Y68000000D02*
X10500000Y65500000D01*
X9750000Y68750000D02*
X10500000Y68000000D01*
%TO.N,Net-(Q12-D)*%
X57000000Y22250000D02*
X55250000Y22250000D01*
X57500000Y22000000D02*
X57250000Y22000000D01*
X57250000Y22000000D02*
X57000000Y22250000D01*
%TO.N,Net-(Q13-D)*%
X84570000Y70180000D02*
X85250000Y69500000D01*
X82540000Y70180000D02*
X84570000Y70180000D01*
%TO.N,Net-(Q14-D)*%
X37690000Y24000000D02*
X36940000Y24750000D01*
X39000000Y24000000D02*
X37690000Y24000000D01*
%TO.N,Net-(Q15-D)*%
X36500000Y75250000D02*
X36500000Y77500000D01*
X35750000Y74500000D02*
X36500000Y75250000D01*
%TO.N,Net-(U1-DISCH)*%
X46860000Y55040000D02*
X46860000Y55770000D01*
X46860000Y60110000D02*
X47000000Y60250000D01*
X47000000Y61750000D02*
X47000000Y60250000D01*
X46860000Y55770000D02*
X46860000Y60110000D01*
%TO.N,GND*%
X63370000Y34800000D02*
X65681968Y34800000D01*
X24120000Y95050000D02*
X24120000Y95501968D01*
X32000000Y75420000D02*
X33870000Y73550000D01*
X57060000Y56190000D02*
X57000000Y56250000D01*
X56500000Y50250000D02*
X56500000Y51190000D01*
X54411000Y22859032D02*
X53370000Y21818032D01*
X45570000Y50250000D02*
X45590000Y50230000D01*
X54411000Y29638549D02*
X54411000Y22859032D01*
X35060000Y13508032D02*
X29120000Y7568032D01*
X25368032Y96750000D02*
X27750000Y96750000D01*
X65681968Y34800000D02*
X66291000Y35409032D01*
X65379032Y94081000D02*
X71169000Y94081000D01*
X53370000Y21818032D02*
X53370000Y21300000D01*
X81250000Y76500000D02*
X79619000Y74869000D01*
X66291000Y40459000D02*
X56500000Y50250000D01*
X34750000Y72670000D02*
X34750000Y70250000D01*
X53250000Y74680000D02*
X54120000Y75550000D01*
X32000000Y92500000D02*
X32000000Y75420000D01*
X8911000Y81759000D02*
X4870000Y85800000D01*
X42334000Y31525968D02*
X35060000Y24251968D01*
X81250000Y86750000D02*
X81250000Y76500000D01*
X54120000Y75550000D02*
X54120000Y76068032D01*
X7870000Y67800000D02*
X7870000Y68318032D01*
X71169000Y94081000D02*
X75000000Y90250000D01*
X35060000Y23800000D02*
X35060000Y13508032D01*
X57060000Y51750000D02*
X57060000Y56190000D01*
X64250000Y86198032D02*
X64250000Y92500000D01*
X24120000Y95501968D02*
X25368032Y96750000D01*
X64250000Y92951968D02*
X65379032Y94081000D01*
X57000000Y56250000D02*
X53250000Y60000000D01*
X62620000Y7818032D02*
X63661000Y8859032D01*
X54120000Y76068032D02*
X64250000Y86198032D01*
X7870000Y68318032D02*
X8911000Y69359032D01*
X53250000Y60000000D02*
X53250000Y74680000D01*
X59572451Y34800000D02*
X54411000Y29638549D01*
X4870000Y85800000D02*
X4870000Y86318032D01*
X24870000Y37912000D02*
X25698000Y37084000D01*
X79619000Y74869000D02*
X79619000Y70271000D01*
X62620000Y7300000D02*
X62620000Y7818032D01*
X4870000Y86318032D02*
X8000000Y89448032D01*
X64250000Y92500000D02*
X64250000Y92951968D01*
X25698000Y37084000D02*
X42334000Y37084000D01*
X79619000Y70271000D02*
X80660000Y69230000D01*
X8000000Y90855346D02*
X8810654Y91666000D01*
X42334000Y37084000D02*
X44500000Y39250000D01*
X27750000Y96750000D02*
X32000000Y92500000D01*
X63370000Y34800000D02*
X59572451Y34800000D01*
X35060000Y24251968D02*
X35060000Y23800000D01*
X56500000Y51190000D02*
X57060000Y51750000D01*
X8000000Y90750000D02*
X8000000Y90855346D01*
X8911000Y69359032D02*
X8911000Y81759000D01*
X29120000Y7568032D02*
X29120000Y7050000D01*
X8000000Y89448032D02*
X8000000Y90750000D01*
X63661000Y8859032D02*
X63661000Y11009000D01*
X42334000Y37084000D02*
X42334000Y31525968D01*
X44000000Y50250000D02*
X45570000Y50250000D01*
X20736000Y91666000D02*
X24120000Y95050000D01*
X63661000Y11009000D02*
X53370000Y21300000D01*
X8810654Y91666000D02*
X20736000Y91666000D01*
X66291000Y35409032D02*
X66291000Y40459000D01*
X84750000Y90250000D02*
X81250000Y86750000D01*
X33870000Y73550000D02*
X34750000Y72670000D01*
X75000000Y90250000D02*
X84750000Y90250000D01*
%TD*%
M02*
