%TF.GenerationSoftware,KiCad,Pcbnew,9.0.5*%
%TF.CreationDate,2025-11-24T22:36:19-05:00*%
%TF.ProjectId,ornament2025,6f726e61-6d65-46e7-9432-3032352e6b69,rev?*%
%TF.SameCoordinates,Original*%
%TF.FileFunction,Copper,L2,Bot*%
%TF.FilePolarity,Positive*%
%FSLAX46Y46*%
G04 Gerber Fmt 4.6, Leading zero omitted, Abs format (unit mm)*
G04 Created by KiCad (PCBNEW 9.0.5) date 2025-11-24 22:36:19*
%MOMM*%
%LPD*%
G01*
G04 APERTURE LIST*
%TA.AperFunction,ViaPad*%
%ADD10C,6.000000*%
%TD*%
%TA.AperFunction,ViaPad*%
%ADD11C,0.600000*%
%TD*%
%TA.AperFunction,Conductor*%
%ADD12C,0.200000*%
%TD*%
G04 APERTURE END LIST*
D10*
%TO.N,*%
X16000000Y96750000D03*
X77000000Y96750000D03*
D11*
%TO.N,+5V*%
X60250000Y6500000D03*
X39000000Y74250000D03*
X86750000Y67000000D03*
X44250000Y55750000D03*
X70750000Y88500000D03*
X49250000Y52250000D03*
X58750000Y26500000D03*
X57750000Y37750000D03*
X48000000Y37000000D03*
X29000000Y88000000D03*
X35250000Y39250000D03*
X55500000Y71750000D03*
X83250000Y82750000D03*
%TO.N,/OUT*%
X52500000Y76250000D03*
X43000000Y61000000D03*
%TO.N,GND*%
X56500000Y50250000D03*
X34750000Y70250000D03*
X44000000Y50250000D03*
%TD*%
D12*
%TO.N,+5V*%
X86750000Y79250000D02*
X83875000Y82125000D01*
X37500000Y37000000D02*
X35250000Y39250000D01*
X83875000Y82125000D02*
X83250000Y82750000D01*
X49250000Y65500000D02*
X49250000Y52250000D01*
X39000000Y78000000D02*
X39000000Y74250000D01*
X47750000Y52250000D02*
X44250000Y55750000D01*
X48750000Y37750000D02*
X48000000Y37000000D01*
X83875000Y82125000D02*
X77500000Y88500000D01*
X86750000Y67000000D02*
X86750000Y79250000D01*
X77500000Y88500000D02*
X70750000Y88500000D01*
X55500000Y71750000D02*
X49250000Y65500000D01*
X57750000Y37750000D02*
X48750000Y37750000D01*
X49250000Y52250000D02*
X47750000Y52250000D01*
X29000000Y88000000D02*
X39000000Y78000000D01*
X60250000Y6500000D02*
X60250000Y25000000D01*
X48000000Y37000000D02*
X37500000Y37000000D01*
X57750000Y27500000D02*
X57750000Y37750000D01*
X60250000Y25000000D02*
X58750000Y26500000D01*
X58750000Y26500000D02*
X57750000Y27500000D01*
%TO.N,/OUT*%
X52500000Y76250000D02*
X52500000Y70500000D01*
X52500000Y70500000D02*
X43000000Y61000000D01*
%TO.N,GND*%
X44000000Y50250000D02*
X56500000Y50250000D01*
X34750000Y70250000D02*
X34750000Y59500000D01*
X34750000Y59500000D02*
X44000000Y50250000D01*
%TD*%
M02*
