%TF.GenerationSoftware,KiCad,Pcbnew,9.0.5*%
%TF.CreationDate,2025-11-24T22:36:19-05:00*%
%TF.ProjectId,ornament2025,6f726e61-6d65-46e7-9432-3032352e6b69,rev?*%
%TF.SameCoordinates,Original*%
%TF.FileFunction,Soldermask,Top*%
%TF.FilePolarity,Negative*%
%FSLAX46Y46*%
G04 Gerber Fmt 4.6, Leading zero omitted, Abs format (unit mm)*
G04 Created by KiCad (PCBNEW 9.0.5) date 2025-11-24 22:36:19*
%MOMM*%
%LPD*%
G01*
G04 APERTURE LIST*
G04 Aperture macros list*
%AMRoundRect*
0 Rectangle with rounded corners*
0 $1 Rounding radius*
0 $2 $3 $4 $5 $6 $7 $8 $9 X,Y pos of 4 corners*
0 Add a 4 corners polygon primitive as box body*
4,1,4,$2,$3,$4,$5,$6,$7,$8,$9,$2,$3,0*
0 Add four circle primitives for the rounded corners*
1,1,$1+$1,$2,$3*
1,1,$1+$1,$4,$5*
1,1,$1+$1,$6,$7*
1,1,$1+$1,$8,$9*
0 Add four rect primitives between the rounded corners*
20,1,$1+$1,$2,$3,$4,$5,0*
20,1,$1+$1,$4,$5,$6,$7,0*
20,1,$1+$1,$6,$7,$8,$9,0*
20,1,$1+$1,$8,$9,$2,$3,0*%
G04 Aperture macros list end*
%ADD10RoundRect,0.159000X-0.159000X-0.189000X0.159000X-0.189000X0.159000X0.189000X-0.159000X0.189000X0*%
%ADD11O,0.793200X2.253200*%
%ADD12RoundRect,0.159000X0.189000X-0.159000X0.189000X0.159000X-0.189000X0.159000X-0.189000X-0.159000X0*%
%ADD13RoundRect,0.200800X-0.640800X-0.200800X0.640800X-0.200800X0.640800X0.200800X-0.640800X0.200800X0*%
%ADD14RoundRect,0.159000X0.159000X0.189000X-0.159000X0.189000X-0.159000X-0.189000X0.159000X-0.189000X0*%
%ADD15RoundRect,0.261500X0.261500X0.476500X-0.261500X0.476500X-0.261500X-0.476500X0.261500X-0.476500X0*%
%ADD16RoundRect,0.159000X-0.189000X0.159000X-0.189000X-0.159000X0.189000X-0.159000X0.189000X0.159000X0*%
%ADD17RoundRect,0.261500X-0.476500X0.261500X-0.476500X-0.261500X0.476500X-0.261500X0.476500X0.261500X0*%
%ADD18RoundRect,0.261500X-0.261500X-0.476500X0.261500X-0.476500X0.261500X0.476500X-0.261500X0.476500X0*%
%ADD19RoundRect,0.261500X0.476500X-0.261500X0.476500X0.261500X-0.476500X0.261500X-0.476500X-0.261500X0*%
%ADD20RoundRect,0.244000X0.244000X0.269000X-0.244000X0.269000X-0.244000X-0.269000X0.244000X-0.269000X0*%
%ADD21RoundRect,0.269000X-0.269000X-0.494000X0.269000X-0.494000X0.269000X0.494000X-0.269000X0.494000X0*%
G04 APERTURE END LIST*
D10*
%TO.C,R2*%
X47000000Y60250000D03*
X48000000Y60250000D03*
%TD*%
D11*
%TO.C,U1*%
X45590000Y50230000D03*
X46860000Y50230000D03*
X48140000Y50230000D03*
X49410000Y50230000D03*
X49410000Y55770000D03*
X48140000Y55770000D03*
X46860000Y55770000D03*
X45590000Y55770000D03*
%TD*%
D12*
%TO.C,R15*%
X85250000Y68500000D03*
X85250000Y69500000D03*
%TD*%
D13*
%TO.C,Q5*%
X64250000Y94400000D03*
X64250000Y92500000D03*
X66130000Y93450000D03*
%TD*%
D10*
%TO.C,R11*%
X63500000Y5250000D03*
X64500000Y5250000D03*
%TD*%
D14*
%TO.C,R1*%
X48000000Y61750000D03*
X47000000Y61750000D03*
%TD*%
D15*
%TO.C,D9*%
X61380000Y4500000D03*
X59500000Y4500000D03*
%TD*%
D13*
%TO.C,Q2*%
X84750000Y92150000D03*
X84750000Y90250000D03*
X86630000Y91200000D03*
%TD*%
%TO.C,Q11*%
X7870000Y69700000D03*
X7870000Y67800000D03*
X9750000Y68750000D03*
%TD*%
D12*
%TO.C,R3*%
X58500000Y75073000D03*
X58500000Y76073000D03*
%TD*%
D16*
%TO.C,R17*%
X36500000Y78500000D03*
X36500000Y77500000D03*
%TD*%
D10*
%TO.C,R6*%
X45000000Y37250000D03*
X46000000Y37250000D03*
%TD*%
D13*
%TO.C,Q10*%
X24870000Y39812000D03*
X24870000Y37912000D03*
X26750000Y38862000D03*
%TD*%
D17*
%TO.C,D7*%
X60250000Y39880000D03*
X60250000Y38000000D03*
%TD*%
D13*
%TO.C,Q3*%
X24120000Y96950000D03*
X24120000Y95050000D03*
X26000000Y96000000D03*
%TD*%
D12*
%TO.C,R8*%
X33750000Y5250000D03*
X33750000Y6250000D03*
%TD*%
D14*
%TO.C,R13*%
X11500000Y65500000D03*
X10500000Y65500000D03*
%TD*%
D13*
%TO.C,Q8*%
X4870000Y87700000D03*
X4870000Y85800000D03*
X6750000Y86750000D03*
%TD*%
D12*
%TO.C,R7*%
X69000000Y92500000D03*
X69000000Y93500000D03*
%TD*%
D18*
%TO.C,D13*%
X82120000Y66500000D03*
X84000000Y66500000D03*
%TD*%
D13*
%TO.C,Q15*%
X33870000Y75450000D03*
X33870000Y73550000D03*
X35750000Y74500000D03*
%TD*%
D12*
%TO.C,R16*%
X39000000Y23000000D03*
X39000000Y24000000D03*
%TD*%
D13*
%TO.C,Q9*%
X62620000Y9200000D03*
X62620000Y7300000D03*
X64500000Y8250000D03*
%TD*%
D18*
%TO.C,D6*%
X29870000Y4000000D03*
X31750000Y4000000D03*
%TD*%
D13*
%TO.C,Q1*%
X54120000Y77450000D03*
X54120000Y75550000D03*
X56000000Y76500000D03*
%TD*%
D12*
%TO.C,R12*%
X29500000Y37750000D03*
X29500000Y38750000D03*
%TD*%
D19*
%TO.C,D10*%
X32500000Y37870000D03*
X32500000Y39750000D03*
%TD*%
D13*
%TO.C,Q12*%
X53370000Y23200000D03*
X53370000Y21300000D03*
X55250000Y22250000D03*
%TD*%
D19*
%TO.C,D8*%
X9500000Y89000000D03*
X9500000Y90880000D03*
%TD*%
D16*
%TO.C,R10*%
X9500000Y86500000D03*
X9500000Y85500000D03*
%TD*%
D10*
%TO.C,R9*%
X64000000Y39250000D03*
X65000000Y39250000D03*
%TD*%
D13*
%TO.C,Q4*%
X44500000Y41150000D03*
X44500000Y39250000D03*
X46380000Y40200000D03*
%TD*%
D16*
%TO.C,R14*%
X57500000Y23000000D03*
X57500000Y22000000D03*
%TD*%
D17*
%TO.C,D15*%
X39250000Y78130000D03*
X39250000Y76250000D03*
%TD*%
D13*
%TO.C,Q13*%
X80660000Y71130000D03*
X80660000Y69230000D03*
X82540000Y70180000D03*
%TD*%
D10*
%TO.C,R5*%
X24500000Y92000000D03*
X25500000Y92000000D03*
%TD*%
D18*
%TO.C,D3*%
X24870000Y89500000D03*
X26750000Y89500000D03*
%TD*%
D13*
%TO.C,Q14*%
X35060000Y25700000D03*
X35060000Y23800000D03*
X36940000Y24750000D03*
%TD*%
D19*
%TO.C,D12*%
X57250000Y25500000D03*
X57250000Y27380000D03*
%TD*%
D15*
%TO.C,D2*%
X84880000Y84750000D03*
X83000000Y84750000D03*
%TD*%
D13*
%TO.C,Q7*%
X63370000Y36700000D03*
X63370000Y34800000D03*
X65250000Y35750000D03*
%TD*%
D20*
%TO.C,C2*%
X57060000Y51750000D03*
X55500000Y51750000D03*
%TD*%
D18*
%TO.C,D4*%
X45000000Y35250000D03*
X46880000Y35250000D03*
%TD*%
%TO.C,D14*%
X37620000Y20500000D03*
X39500000Y20500000D03*
%TD*%
D10*
%TO.C,R4*%
X85250000Y88000000D03*
X86250000Y88000000D03*
%TD*%
D19*
%TO.C,D11*%
X12500000Y68500000D03*
X12500000Y70380000D03*
%TD*%
D13*
%TO.C,Q6*%
X29120000Y8950000D03*
X29120000Y7050000D03*
X31000000Y8000000D03*
%TD*%
D21*
%TO.C,C1*%
X55100000Y56250000D03*
X57000000Y56250000D03*
%TD*%
D18*
%TO.C,D5*%
X66870000Y88500000D03*
X68750000Y88500000D03*
%TD*%
D15*
%TO.C,D1*%
X58880000Y71750000D03*
X57000000Y71750000D03*
%TD*%
M02*
