%TF.GenerationSoftware,KiCad,Pcbnew,9.0.5*%
%TF.CreationDate,2025-11-24T22:36:19-05:00*%
%TF.ProjectId,ornament2025,6f726e61-6d65-46e7-9432-3032352e6b69,rev?*%
%TF.SameCoordinates,Original*%
%TF.FileFunction,Profile,NP*%
%FSLAX46Y46*%
G04 Gerber Fmt 4.6, Leading zero omitted, Abs format (unit mm)*
G04 Created by KiCad (PCBNEW 9.0.5) date 2025-11-24 22:36:19*
%MOMM*%
%LPD*%
G01*
G04 APERTURE LIST*
%TA.AperFunction,Profile*%
%ADD10C,0.050000*%
%TD*%
G04 APERTURE END LIST*
D10*
X78740000Y82042000D02*
X78994000Y81534000D01*
X70358000Y84455000D02*
X70739000Y84963000D01*
X76581000Y84582000D02*
X77216000Y84455000D01*
X76073000Y101600000D02*
X74549000Y101727000D01*
X89535000Y66421000D02*
X90678000Y68707000D01*
X25781000Y6604000D02*
X25781000Y5588000D01*
X31496000Y29591000D02*
X31877000Y30099000D01*
X67945000Y100711000D02*
X66675000Y100330000D01*
X92837000Y75565000D02*
X92837000Y76073000D01*
X65151000Y99568000D02*
X64516000Y99250500D01*
X19177000Y45085000D02*
X21082000Y43180000D01*
X15875000Y73152000D02*
X15494000Y74168000D01*
X73660000Y44069000D02*
X73914000Y44577000D01*
X79502000Y62738000D02*
X80391000Y62484000D01*
X75057000Y47371000D02*
X75311000Y48895000D01*
X22987000Y26797000D02*
X22860000Y26162000D01*
X90424000Y92202000D02*
X89916000Y92710000D01*
X13589000Y34417000D02*
X14478000Y34290000D01*
X18415000Y101346000D02*
X16383000Y101219000D01*
X76835000Y66675000D02*
X77216000Y65786000D01*
X34798000Y889000D02*
X35687000Y1397000D01*
X92202000Y88138000D02*
X91567000Y90043000D01*
X62865000Y64516000D02*
X61595000Y64008000D01*
X32893000Y64008000D02*
X32258000Y64262000D01*
X61087010Y-127000D02*
X63119000Y-127000D01*
X16256000Y83947000D02*
X17018000Y84328000D01*
X74041000Y54229000D02*
X74549000Y55245000D01*
X92329000Y73152000D02*
X92456000Y73914000D01*
X59563000Y94869000D02*
X58420000Y93345000D01*
X19304000Y54356000D02*
X19304000Y53467000D01*
X75057000Y60579000D02*
X74803000Y61595000D01*
X92837000Y76073000D02*
X93091000Y76835000D01*
X63627000Y64897000D02*
X62865000Y64516000D01*
X25527000Y80899000D02*
X25908000Y80264000D01*
X85725000Y62357000D02*
X86487000Y62992000D01*
X19177000Y55372000D02*
X19304000Y54356000D01*
X64516000Y99250500D02*
X63754000Y98806000D01*
X16383000Y70104000D02*
X15875000Y73152000D01*
X21590000Y84836000D02*
X21971000Y84582000D01*
X24384000Y65659000D02*
X23495000Y65659000D01*
X92456000Y73914000D02*
X92583000Y74803000D01*
X21082000Y43180000D02*
X21844000Y42545000D01*
X26670000Y25781000D02*
X27305000Y26162000D01*
X78994000Y78359000D02*
X78867000Y77470000D01*
X66929000Y3175000D02*
X67183000Y3556000D01*
X25400000Y65786000D02*
X24384000Y65659000D01*
X84836000Y98298000D02*
X84328000Y98552000D01*
X64643000Y508000D02*
X65405000Y1143000D01*
X15113000Y75057000D02*
X14732000Y76581000D01*
X78232000Y74676000D02*
X77978000Y73787000D01*
X74930000Y57658000D02*
X75184000Y58801000D01*
X31877000Y30099000D02*
X33020000Y30988000D01*
X74803000Y46228000D02*
X75057000Y47371000D01*
X56896000Y2286000D02*
X57150000Y1905000D01*
X18923000Y52578000D02*
X18415000Y51816000D01*
X27305000Y65659000D02*
X26416000Y65786000D01*
X60833000Y63500000D02*
X60071000Y63373000D01*
X84709000Y61976000D02*
X85725000Y62357000D01*
X33020000Y95504000D02*
X31496000Y96647000D01*
X61595000Y64008000D02*
X60833000Y63500000D01*
X35687000Y1397000D02*
X36322000Y2032000D01*
X14351000Y80137000D02*
X14605000Y81026000D01*
X16510000Y66294000D02*
X16637000Y67564000D01*
X22860000Y33782000D02*
X23495000Y33782000D01*
X57150000Y1905000D02*
X57658000Y1524000D01*
X80264000Y34671000D02*
X81534000Y35052000D01*
X66675000Y65278000D02*
X66040000Y65151000D01*
X80391000Y62484000D02*
X81153000Y62103000D01*
X76962000Y69977000D02*
X76835000Y68834000D01*
X13335000Y100584000D02*
X12192000Y100076000D01*
X78105000Y101219000D02*
X77216000Y101346000D01*
X38100000Y4826000D02*
X38227000Y5334000D01*
X71755000Y42545000D02*
X72136000Y42799000D01*
X74803000Y61595000D02*
X74422000Y62611000D01*
X73914000Y44577000D02*
X74295000Y45212000D01*
X88773000Y65278000D02*
X89535000Y66421000D01*
X6985000Y96901000D02*
X6223000Y96139000D01*
X15240000Y82677000D02*
X15875000Y83439000D01*
X79121000Y80518000D02*
X79121000Y79502000D01*
X73279000Y64008000D02*
X72517000Y64516000D01*
X15494000Y74168000D02*
X15113000Y75057000D01*
X21209000Y64897000D02*
X20574000Y64262000D01*
X12573000Y34671000D02*
X13208000Y34544000D01*
X18415000Y57404000D02*
X18669000Y56896000D01*
X8763000Y98298000D02*
X7874000Y97536000D01*
X29718000Y98044000D02*
X28194000Y99187000D01*
X69596000Y101092000D02*
X68961000Y100965000D01*
X91440000Y70739000D02*
X91694000Y71374000D01*
X91567000Y90043000D02*
X91186000Y90805000D01*
X80518000Y100457000D02*
X79629000Y100711000D01*
X74422000Y85344000D02*
X75311000Y85090000D01*
X14478000Y34290000D02*
X14986000Y34036000D01*
X56896000Y91059000D02*
X56007000Y89789000D01*
X18669000Y46990000D02*
X19177000Y45085000D01*
X70993000Y101346000D02*
X69596000Y101092000D01*
X78867000Y101092000D02*
X78105000Y101219000D01*
X68580000Y82550000D02*
X69088000Y83185000D01*
X14605000Y77343000D02*
X14478000Y78994000D01*
X78867000Y63119000D02*
X79502000Y62738000D01*
X12192000Y100076000D02*
X11430000Y99822000D01*
X8001000Y62103000D02*
X9144000Y61722000D01*
X79629000Y100711000D02*
X78867000Y101092000D01*
X12954000Y62230000D02*
X13843000Y62484000D01*
X64135000Y381000D02*
X64643000Y508000D01*
X78867000Y77470000D02*
X78740000Y76454000D01*
X33782000Y381000D02*
X34290000Y762000D01*
X21844000Y42545000D02*
X22352000Y42291000D01*
X6350000Y63373000D02*
X7112000Y62738000D01*
X67691000Y81280000D02*
X68580000Y82550000D01*
X78486000Y82677000D02*
X78740000Y82042000D01*
X78867000Y34290000D02*
X80264000Y34671000D01*
X86487000Y62992000D02*
X87503000Y63754000D01*
X31877000Y0D02*
X32258000Y254000D01*
X38227000Y5334000D02*
X38481000Y6096000D01*
X77597000Y84074000D02*
X77978000Y83439000D01*
X20320000Y101346000D02*
X18415000Y101346000D01*
X27686000Y1397000D02*
X29210000Y381000D01*
X36703000Y90678000D02*
X35687000Y91948000D01*
X25908000Y8255000D02*
X25781000Y7493000D01*
X83566000Y99060000D02*
X82931000Y99441000D01*
X55626000Y4191000D02*
X56388000Y2921000D01*
X69977000Y84201000D02*
X70358000Y84455000D01*
X81534000Y35052000D02*
X82296000Y35306000D01*
X9652000Y98679000D02*
X8763000Y98298000D01*
X66929000Y80010000D02*
X67691000Y81280000D01*
X89916000Y92710000D02*
X89535000Y93599000D01*
X21209000Y33528000D02*
X22098000Y33655000D01*
X24130000Y33274000D02*
X23876000Y32385000D01*
X18415000Y60452000D02*
X18288000Y59690000D01*
X76708000Y67818000D02*
X76835000Y67564000D01*
X23495000Y33782000D02*
X23876000Y33909000D01*
X13208000Y34544000D02*
X13589000Y34417000D01*
X14732000Y63373000D02*
X15494000Y64008000D01*
X93218000Y77470000D02*
X93218000Y78232000D01*
X9144000Y61722000D02*
X10668000Y61595000D01*
X88265000Y95123000D02*
X87757000Y95758000D01*
X78486000Y75692000D02*
X78232000Y74676000D01*
X38481000Y6096000D02*
X38862000Y6731000D01*
X10541000Y99441000D02*
X9652000Y98679000D01*
X0Y82804000D02*
X0Y79248000D01*
X71481240Y22936470D02*
X69898570Y34147040D01*
X22733000Y25400000D02*
X22733000Y24638000D01*
X33655000Y94742000D02*
X33020000Y95504000D01*
X82931000Y99441000D02*
X82296000Y99695000D01*
X11684000Y61849000D02*
X12954000Y62230000D01*
X37592000Y3937000D02*
X38100000Y4826000D01*
X78994000Y81534000D02*
X79121000Y80518000D01*
X69088000Y83185000D02*
X69469000Y83820000D01*
X19050000Y85090000D02*
X20828000Y85090000D01*
X31242000Y64643000D02*
X30480000Y64897000D01*
X93345000Y83693000D02*
X93218000Y84328000D01*
X25908000Y80264000D02*
X32893000Y64008000D01*
X92583000Y87503000D02*
X92202000Y88138000D01*
X60071030Y126990D02*
X61087010Y-127000D01*
X72009000Y101600000D02*
X70993000Y101346000D01*
X32766000Y381000D02*
X33782000Y381000D01*
X6223000Y96139000D02*
X5461000Y94996000D01*
X36322000Y2032000D02*
X36830000Y2667000D01*
X24003000Y24130000D02*
X24638000Y24384000D01*
X66675000Y100330000D02*
X65913000Y99949000D01*
X77978000Y83439000D02*
X78486000Y82677000D01*
X5334000Y64262000D02*
X6350000Y63373000D01*
X19304000Y53467000D02*
X18923000Y52578000D01*
X15875000Y33782000D02*
X16510000Y33782000D01*
X67437000Y5080000D02*
X67564000Y6350000D01*
X2921000Y91821000D02*
X2032000Y90805000D01*
X33020000Y30988000D02*
X33655000Y31750000D01*
X22098000Y33655000D02*
X22860000Y33782000D01*
X2032000Y90805000D02*
X1524000Y89281000D01*
X46736000Y66421000D02*
X38862000Y86995000D01*
X79121000Y79502000D02*
X78994000Y78359000D01*
X74041000Y85471000D02*
X74422000Y85344000D01*
X14605000Y81026000D02*
X14859000Y82169000D01*
X84328000Y98552000D02*
X83566000Y99060000D01*
X74549000Y52451000D02*
X74041000Y53594000D01*
X28194000Y99187000D02*
X26924000Y99949000D01*
X23495000Y30099000D02*
X23368000Y29337000D01*
X4318000Y93853000D02*
X3556000Y92964000D01*
X27305000Y26162000D02*
X28575000Y27178000D01*
X21717000Y65151000D02*
X21209000Y64897000D01*
X25908000Y25400000D02*
X26670000Y25781000D01*
X22733000Y24638000D02*
X22479000Y23368000D01*
X32258000Y254000D02*
X32766000Y381000D01*
X18415000Y51816000D02*
X18161000Y50419000D01*
X26416000Y65786000D02*
X25400000Y65786000D01*
X26162000Y3429000D02*
X27686000Y1397000D01*
X77978000Y73787000D02*
X77724000Y73025000D01*
X61595000Y96901000D02*
X60579000Y96012000D01*
X30480000Y64897000D02*
X29464000Y65151000D01*
X28575000Y27178000D02*
X29083000Y27559000D01*
X66548000Y2286000D02*
X66929000Y3175000D01*
X18923000Y56007000D02*
X19177000Y55372000D01*
X508000Y86868000D02*
X127000Y84709000D01*
X7874000Y97536000D02*
X6985000Y96901000D01*
X91059000Y69596000D02*
X91440000Y70739000D01*
X64516000Y65024000D02*
X63627000Y64897000D01*
X82169000Y61849000D02*
X82931000Y61595000D01*
X67437000Y4318000D02*
X67437000Y5080000D01*
X32258000Y64262000D02*
X31242000Y64643000D01*
X14859000Y82169000D02*
X15240000Y82677000D01*
X93472000Y82677000D02*
X93345000Y83693000D01*
X58420000Y93345000D02*
X56896000Y91059000D01*
X76835000Y68834000D02*
X76708000Y67818000D01*
X34163000Y32258000D02*
X26289000Y10160000D01*
X526140Y75565000D02*
X1764860Y71663030D01*
X18542000Y61341000D02*
X18415000Y60452000D01*
X10668000Y61595000D02*
X11684000Y61849000D01*
X25400000Y25019000D02*
X25908000Y25400000D01*
X70612000Y65151000D02*
X69342000Y65278000D01*
X38862000Y6731000D02*
X39116000Y7747000D01*
X89535000Y93599000D02*
X88265000Y95123000D01*
X19812000Y64008000D02*
X19177000Y63119000D01*
X23622000Y30607000D02*
X23495000Y30099000D01*
X93599000Y79883000D02*
X93472000Y80645000D01*
X65913000Y99949000D02*
X65151000Y99568000D01*
X87503000Y63754000D02*
X88773000Y65278000D01*
X67437000Y8636000D02*
X67310000Y9525000D01*
X91186000Y90805000D02*
X90678000Y91567000D01*
X91694000Y71374000D02*
X91948000Y72263000D01*
X17526000Y33655000D02*
X18669000Y33528000D01*
X85598000Y97663000D02*
X84836000Y98298000D01*
X54610000Y86995000D02*
X53848000Y85725000D01*
X81153000Y62103000D02*
X82169000Y61849000D01*
X4572000Y65278000D02*
X5334000Y64262000D01*
X69342000Y65278000D02*
X66675000Y65278000D01*
X75184000Y58801000D02*
X75184000Y59563000D01*
X26924000Y99949000D02*
X25654000Y100457000D01*
X92964000Y86106000D02*
X92583000Y87503000D01*
X17018000Y84328000D02*
X18161000Y84836000D01*
X90678000Y91567000D02*
X90424000Y92202000D01*
X69898570Y34147040D02*
X72517000Y33909000D01*
X93091000Y76835000D02*
X93218000Y77470000D01*
X889000Y87884000D02*
X508000Y86868000D01*
X57785000Y1270000D02*
X58420000Y889000D01*
X23241000Y27559000D02*
X22987000Y26797000D01*
X20574000Y64262000D02*
X19812000Y64008000D01*
X38100000Y88519000D02*
X37592000Y89408000D01*
X78740000Y76454000D02*
X78486000Y75692000D01*
X3683000Y66548000D02*
X4572000Y65278000D01*
X0Y79248000D02*
X526140Y75565000D01*
X15494000Y64008000D02*
X16510000Y66294000D01*
X14732000Y76581000D02*
X14605000Y77343000D01*
X60071000Y63373000D02*
X66929000Y80010000D01*
X56007000Y89789000D02*
X55372000Y88900000D01*
X69469000Y83820000D02*
X69977000Y84201000D01*
X76454000Y33909000D02*
X78867000Y34290000D01*
X93472000Y78867000D02*
X93599000Y79883000D01*
X74549000Y101727000D02*
X73025000Y101727000D01*
X66040000Y65151000D02*
X65278000Y65024000D01*
X64856070Y27686590D02*
X71481240Y22936470D01*
X91948000Y72263000D02*
X92329000Y73152000D01*
X31496000Y96647000D02*
X29718000Y98044000D01*
X30226000Y28575000D02*
X31496000Y29591000D01*
X75057000Y50165000D02*
X74549000Y52451000D01*
X82296000Y35306000D02*
X82296000Y35433000D01*
X27940000Y65405000D02*
X27305000Y65659000D01*
X77216000Y84455000D02*
X77597000Y84074000D01*
X22479000Y23368000D02*
X22733000Y23241000D01*
X67564000Y6350000D02*
X67564000Y7366000D01*
X24638000Y24384000D02*
X25400000Y25019000D01*
X3556000Y92964000D02*
X2921000Y91821000D01*
X72263000Y85344000D02*
X72644000Y85471000D01*
X18288000Y58420000D02*
X18415000Y57404000D01*
X13843000Y62484000D02*
X14732000Y63373000D01*
X75311000Y85090000D02*
X75946000Y84963000D01*
X18161000Y84836000D02*
X19050000Y85090000D01*
X30607000Y0D02*
X31877000Y0D01*
X16637000Y67564000D02*
X16510000Y69088000D01*
X90678000Y68707000D02*
X91059000Y69596000D01*
X65278000Y65024000D02*
X64516000Y65024000D01*
X18415000Y47879000D02*
X18669000Y46990000D01*
X74676000Y33782000D02*
X76454000Y33909000D01*
X74803000Y56515000D02*
X74930000Y57658000D01*
X57658000Y1524000D02*
X57785000Y1270000D01*
X60579000Y96012000D02*
X59563000Y94869000D01*
X82296000Y35433000D02*
X71755000Y42291000D01*
X77089000Y70866000D02*
X76962000Y69977000D01*
X16510000Y33782000D02*
X17526000Y33655000D01*
X29464000Y65151000D02*
X27940000Y65405000D01*
X18669000Y62484000D02*
X18542000Y61341000D01*
X25781000Y7493000D02*
X25781000Y6604000D01*
X71755000Y42291000D02*
X71755000Y42545000D01*
X7112000Y62738000D02*
X8001000Y62103000D01*
X70739000Y84963000D02*
X71374000Y85090000D01*
X72517000Y33909000D02*
X74676000Y33782000D01*
X14986000Y34036000D02*
X15875000Y33782000D01*
X19177000Y63119000D02*
X18669000Y62484000D01*
X18161000Y50419000D02*
X18415000Y49149000D01*
X22733000Y84328000D02*
X23495000Y83693000D01*
X23241000Y28321000D02*
X23241000Y27559000D01*
X16383000Y101219000D02*
X14605000Y100838000D01*
X56388000Y2921000D02*
X56896000Y2286000D01*
X36830000Y2667000D02*
X37338000Y3683000D01*
X55372000Y88900000D02*
X54610000Y86995000D01*
X71628000Y64897000D02*
X70612000Y65151000D01*
X11557000Y35433000D02*
X11557000Y35179000D01*
X67310000Y9525000D02*
X58787230Y33095770D01*
X72517000Y64516000D02*
X71628000Y64897000D01*
X77724000Y73025000D02*
X77343000Y71755000D01*
X93218000Y78232000D02*
X93472000Y78867000D01*
X77724000Y64262000D02*
X78867000Y63119000D01*
X18288000Y59690000D02*
X18288000Y58420000D01*
X14605000Y100838000D02*
X13335000Y100584000D01*
X65405000Y1143000D02*
X66548000Y2286000D01*
X71374000Y85090000D02*
X72263000Y85344000D01*
X29083000Y27559000D02*
X30226000Y28575000D01*
X34290000Y762000D02*
X34798000Y889000D01*
X30607000Y0D02*
X29210000Y381000D01*
X18669000Y56896000D02*
X18923000Y56007000D01*
X82296000Y99695000D02*
X81280000Y100076000D01*
X93218000Y84328000D02*
X92964000Y86106000D01*
X24130000Y33909000D02*
X24130000Y33274000D01*
X87757000Y95758000D02*
X86995000Y96520000D01*
X14478000Y78994000D02*
X14351000Y80137000D01*
X23495000Y65659000D02*
X21717000Y65151000D01*
X46736000Y27305000D02*
X55626000Y4191000D01*
X127000Y84709000D02*
X0Y82804000D01*
X86233000Y97155000D02*
X85598000Y97663000D01*
X63119000Y-127000D02*
X64135000Y381000D01*
X24130000Y82931000D02*
X25146000Y81661000D01*
X74549000Y55245000D02*
X74803000Y56515000D01*
X22352000Y42291000D02*
X11557000Y35433000D01*
X25146000Y81661000D02*
X25527000Y80899000D01*
X74295000Y45212000D02*
X74803000Y46228000D01*
X22860000Y26162000D02*
X22733000Y25400000D01*
X73152000Y43561000D02*
X73660000Y44069000D01*
X81280000Y100076000D02*
X80518000Y100457000D01*
X63754000Y98806000D02*
X61595000Y96901000D01*
X26289000Y10160000D02*
X25908000Y8255000D01*
X58787230Y33095770D02*
X64856070Y27686590D01*
X74422000Y62611000D02*
X73914000Y63246000D01*
X1524000Y89281000D02*
X889000Y87884000D01*
X15875000Y83439000D02*
X16256000Y83947000D01*
X18669000Y33528000D02*
X21209000Y33528000D01*
X74041000Y53594000D02*
X74041000Y54229000D01*
X75311000Y48895000D02*
X75057000Y50165000D01*
X37338000Y3683000D02*
X37592000Y3937000D01*
X23495000Y83693000D02*
X24130000Y82931000D01*
X58928000Y508000D02*
X60071030Y126990D01*
X35687000Y91948000D02*
X34798000Y93218000D01*
X77216000Y101346000D02*
X76073000Y101600000D01*
X22352000Y101219000D02*
X20320000Y101346000D01*
X75946000Y84963000D02*
X76581000Y84582000D01*
X53848000Y85725000D02*
X46736000Y66421000D01*
X25781000Y5588000D02*
X26162000Y3429000D01*
X76835000Y67564000D02*
X76835000Y66675000D01*
X73025000Y101727000D02*
X72009000Y101600000D01*
X33655000Y31750000D02*
X34163000Y32258000D01*
X86995000Y96520000D02*
X86233000Y97155000D01*
X77216000Y65786000D02*
X77597000Y65024000D01*
X11811000Y34925000D02*
X12573000Y34671000D01*
X11557000Y35179000D02*
X11811000Y34925000D01*
X5461000Y94996000D02*
X4318000Y93853000D01*
X67183000Y3556000D02*
X67437000Y4318000D01*
X11430000Y99822000D02*
X10541000Y99441000D01*
X21971000Y84582000D02*
X22733000Y84328000D01*
X23876000Y33909000D02*
X24130000Y33909000D01*
X22733000Y23241000D02*
X24003000Y24130000D01*
X67564000Y7366000D02*
X67437000Y8636000D01*
X23368000Y29337000D02*
X23241000Y28321000D01*
X20828000Y85090000D02*
X21590000Y84836000D01*
X39116000Y7747000D02*
X46736000Y27305000D01*
X16510000Y69088000D02*
X16383000Y70104000D01*
X72136000Y42799000D02*
X73152000Y43561000D01*
X93472000Y80645000D02*
X93472000Y82677000D01*
X77343000Y71755000D02*
X77089000Y70866000D01*
X75184000Y59563000D02*
X75057000Y60579000D01*
X1764860Y71663030D02*
X3683000Y66548000D01*
X73914000Y63246000D02*
X73279000Y64008000D01*
X18415000Y49149000D02*
X18415000Y47879000D01*
X38862000Y86995000D02*
X38100000Y88519000D01*
X92583000Y74803000D02*
X92837000Y75565000D01*
X72644000Y85471000D02*
X74041000Y85471000D01*
X25654000Y100457000D02*
X22352000Y101219000D01*
X34798000Y93218000D02*
X33655000Y94742000D01*
X58420000Y889000D02*
X58928000Y508000D01*
X68961000Y100965000D02*
X67945000Y100711000D01*
X82931000Y61595000D02*
X84709000Y61976000D01*
X37592000Y89408000D02*
X36703000Y90678000D01*
X23876000Y32385000D02*
X23622000Y30607000D01*
X77597000Y65024000D02*
X77724000Y64262000D01*
M02*
