%TF.GenerationSoftware,KiCad,Pcbnew,9.0.5*%
%TF.CreationDate,2025-11-24T22:36:19-05:00*%
%TF.ProjectId,ornament2025,6f726e61-6d65-46e7-9432-3032352e6b69,rev?*%
%TF.SameCoordinates,Original*%
%TF.FileFunction,Legend,Bot*%
%TF.FilePolarity,Positive*%
%FSLAX46Y46*%
G04 Gerber Fmt 4.6, Leading zero omitted, Abs format (unit mm)*
G04 Created by KiCad (PCBNEW 9.0.5) date 2025-11-24 22:36:19*
%MOMM*%
%LPD*%
G01*
G04 APERTURE LIST*
%ADD10C,0.254000*%
G04 APERTURE END LIST*
D10*
X50487752Y42812027D02*
X49616895Y42812027D01*
X50052323Y41288027D02*
X50052323Y42812027D01*
X49108894Y41288027D02*
X49108894Y42812027D01*
X48455752Y41288027D02*
X48455752Y42086313D01*
X48455752Y42086313D02*
X48528323Y42231456D01*
X48528323Y42231456D02*
X48673466Y42304027D01*
X48673466Y42304027D02*
X48891180Y42304027D01*
X48891180Y42304027D02*
X49036323Y42231456D01*
X49036323Y42231456D02*
X49108894Y42158884D01*
X47875180Y42304027D02*
X47584895Y41288027D01*
X47584895Y41288027D02*
X47294609Y42013741D01*
X47294609Y42013741D02*
X47004323Y41288027D01*
X47004323Y41288027D02*
X46714037Y42304027D01*
X45552895Y41360598D02*
X45698038Y41288027D01*
X45698038Y41288027D02*
X45988324Y41288027D01*
X45988324Y41288027D02*
X46133466Y41360598D01*
X46133466Y41360598D02*
X46206038Y41505741D01*
X46206038Y41505741D02*
X46206038Y42086313D01*
X46206038Y42086313D02*
X46133466Y42231456D01*
X46133466Y42231456D02*
X45988324Y42304027D01*
X45988324Y42304027D02*
X45698038Y42304027D01*
X45698038Y42304027D02*
X45552895Y42231456D01*
X45552895Y42231456D02*
X45480324Y42086313D01*
X45480324Y42086313D02*
X45480324Y41941170D01*
X45480324Y41941170D02*
X46206038Y41796027D01*
X44174038Y41288027D02*
X44174038Y42086313D01*
X44174038Y42086313D02*
X44246609Y42231456D01*
X44246609Y42231456D02*
X44391752Y42304027D01*
X44391752Y42304027D02*
X44682038Y42304027D01*
X44682038Y42304027D02*
X44827180Y42231456D01*
X44174038Y41360598D02*
X44319180Y41288027D01*
X44319180Y41288027D02*
X44682038Y41288027D01*
X44682038Y41288027D02*
X44827180Y41360598D01*
X44827180Y41360598D02*
X44899752Y41505741D01*
X44899752Y41505741D02*
X44899752Y41650884D01*
X44899752Y41650884D02*
X44827180Y41796027D01*
X44827180Y41796027D02*
X44682038Y41868598D01*
X44682038Y41868598D02*
X44319180Y41868598D01*
X44319180Y41868598D02*
X44174038Y41941170D01*
X43666038Y42304027D02*
X43085466Y42304027D01*
X43448323Y42812027D02*
X43448323Y41505741D01*
X43448323Y41505741D02*
X43375752Y41360598D01*
X43375752Y41360598D02*
X43230609Y41288027D01*
X43230609Y41288027D02*
X43085466Y41288027D01*
X42795181Y42304027D02*
X42214609Y42304027D01*
X42577466Y42812027D02*
X42577466Y41505741D01*
X42577466Y41505741D02*
X42504895Y41360598D01*
X42504895Y41360598D02*
X42359752Y41288027D01*
X42359752Y41288027D02*
X42214609Y41288027D01*
X48437609Y40380884D02*
X48365037Y40453456D01*
X48365037Y40453456D02*
X48219895Y40526027D01*
X48219895Y40526027D02*
X47857037Y40526027D01*
X47857037Y40526027D02*
X47711895Y40453456D01*
X47711895Y40453456D02*
X47639323Y40380884D01*
X47639323Y40380884D02*
X47566752Y40235741D01*
X47566752Y40235741D02*
X47566752Y40090598D01*
X47566752Y40090598D02*
X47639323Y39872884D01*
X47639323Y39872884D02*
X48510180Y39002027D01*
X48510180Y39002027D02*
X47566752Y39002027D01*
X46623323Y40526027D02*
X46478180Y40526027D01*
X46478180Y40526027D02*
X46333037Y40453456D01*
X46333037Y40453456D02*
X46260466Y40380884D01*
X46260466Y40380884D02*
X46187894Y40235741D01*
X46187894Y40235741D02*
X46115323Y39945456D01*
X46115323Y39945456D02*
X46115323Y39582598D01*
X46115323Y39582598D02*
X46187894Y39292313D01*
X46187894Y39292313D02*
X46260466Y39147170D01*
X46260466Y39147170D02*
X46333037Y39074598D01*
X46333037Y39074598D02*
X46478180Y39002027D01*
X46478180Y39002027D02*
X46623323Y39002027D01*
X46623323Y39002027D02*
X46768466Y39074598D01*
X46768466Y39074598D02*
X46841037Y39147170D01*
X46841037Y39147170D02*
X46913608Y39292313D01*
X46913608Y39292313D02*
X46986180Y39582598D01*
X46986180Y39582598D02*
X46986180Y39945456D01*
X46986180Y39945456D02*
X46913608Y40235741D01*
X46913608Y40235741D02*
X46841037Y40380884D01*
X46841037Y40380884D02*
X46768466Y40453456D01*
X46768466Y40453456D02*
X46623323Y40526027D01*
X45534751Y40380884D02*
X45462179Y40453456D01*
X45462179Y40453456D02*
X45317037Y40526027D01*
X45317037Y40526027D02*
X44954179Y40526027D01*
X44954179Y40526027D02*
X44809037Y40453456D01*
X44809037Y40453456D02*
X44736465Y40380884D01*
X44736465Y40380884D02*
X44663894Y40235741D01*
X44663894Y40235741D02*
X44663894Y40090598D01*
X44663894Y40090598D02*
X44736465Y39872884D01*
X44736465Y39872884D02*
X45607322Y39002027D01*
X45607322Y39002027D02*
X44663894Y39002027D01*
X44155893Y40526027D02*
X43212465Y40526027D01*
X43212465Y40526027D02*
X43720465Y39945456D01*
X43720465Y39945456D02*
X43502750Y39945456D01*
X43502750Y39945456D02*
X43357608Y39872884D01*
X43357608Y39872884D02*
X43285036Y39800313D01*
X43285036Y39800313D02*
X43212465Y39655170D01*
X43212465Y39655170D02*
X43212465Y39292313D01*
X43212465Y39292313D02*
X43285036Y39147170D01*
X43285036Y39147170D02*
X43357608Y39074598D01*
X43357608Y39074598D02*
X43502750Y39002027D01*
X43502750Y39002027D02*
X43938179Y39002027D01*
X43938179Y39002027D02*
X44083322Y39074598D01*
X44083322Y39074598D02*
X44155893Y39147170D01*
X48437609Y44844027D02*
X48437609Y43755456D01*
X48437609Y43755456D02*
X48510180Y43537741D01*
X48510180Y43537741D02*
X48655323Y43392598D01*
X48655323Y43392598D02*
X48873037Y43320027D01*
X48873037Y43320027D02*
X49018180Y43320027D01*
X47058752Y43320027D02*
X47058752Y44118313D01*
X47058752Y44118313D02*
X47131323Y44263456D01*
X47131323Y44263456D02*
X47276466Y44336027D01*
X47276466Y44336027D02*
X47566752Y44336027D01*
X47566752Y44336027D02*
X47711894Y44263456D01*
X47058752Y43392598D02*
X47203894Y43320027D01*
X47203894Y43320027D02*
X47566752Y43320027D01*
X47566752Y43320027D02*
X47711894Y43392598D01*
X47711894Y43392598D02*
X47784466Y43537741D01*
X47784466Y43537741D02*
X47784466Y43682884D01*
X47784466Y43682884D02*
X47711894Y43828027D01*
X47711894Y43828027D02*
X47566752Y43900598D01*
X47566752Y43900598D02*
X47203894Y43900598D01*
X47203894Y43900598D02*
X47058752Y43973170D01*
X45679895Y43392598D02*
X45825037Y43320027D01*
X45825037Y43320027D02*
X46115323Y43320027D01*
X46115323Y43320027D02*
X46260466Y43392598D01*
X46260466Y43392598D02*
X46333037Y43465170D01*
X46333037Y43465170D02*
X46405609Y43610313D01*
X46405609Y43610313D02*
X46405609Y44045741D01*
X46405609Y44045741D02*
X46333037Y44190884D01*
X46333037Y44190884D02*
X46260466Y44263456D01*
X46260466Y44263456D02*
X46115323Y44336027D01*
X46115323Y44336027D02*
X45825037Y44336027D01*
X45825037Y44336027D02*
X45679895Y44263456D01*
X44809037Y43320027D02*
X44954180Y43392598D01*
X44954180Y43392598D02*
X45026751Y43465170D01*
X45026751Y43465170D02*
X45099323Y43610313D01*
X45099323Y43610313D02*
X45099323Y44045741D01*
X45099323Y44045741D02*
X45026751Y44190884D01*
X45026751Y44190884D02*
X44954180Y44263456D01*
X44954180Y44263456D02*
X44809037Y44336027D01*
X44809037Y44336027D02*
X44591323Y44336027D01*
X44591323Y44336027D02*
X44446180Y44263456D01*
X44446180Y44263456D02*
X44373609Y44190884D01*
X44373609Y44190884D02*
X44301037Y44045741D01*
X44301037Y44045741D02*
X44301037Y43610313D01*
X44301037Y43610313D02*
X44373609Y43465170D01*
X44373609Y43465170D02*
X44446180Y43392598D01*
X44446180Y43392598D02*
X44591323Y43320027D01*
X44591323Y43320027D02*
X44809037Y43320027D01*
X43647894Y43320027D02*
X43647894Y44844027D01*
X43647894Y44263456D02*
X43502752Y44336027D01*
X43502752Y44336027D02*
X43212466Y44336027D01*
X43212466Y44336027D02*
X43067323Y44263456D01*
X43067323Y44263456D02*
X42994752Y44190884D01*
X42994752Y44190884D02*
X42922180Y44045741D01*
X42922180Y44045741D02*
X42922180Y43610313D01*
X42922180Y43610313D02*
X42994752Y43465170D01*
X42994752Y43465170D02*
X43067323Y43392598D01*
X43067323Y43392598D02*
X43212466Y43320027D01*
X43212466Y43320027D02*
X43502752Y43320027D01*
X43502752Y43320027D02*
X43647894Y43392598D01*
%LPC*%
%LPD*%
M02*
